{
	"asset":{
		"generator":"Khronos glTF Blender I/O v5.1.19",
		"version":"2.0"
	},
	"scene":0,
	"scenes":[
		{
			"name":"Scene",
			"nodes":[
				0
			]
		}
	],
	"nodes":[
		{
			"mesh":0,
			"name":"agac"
		}
	],
	"materials":[
		{
			"doubleSided":true,
			"name":"odun",
			"pbrMetallicRoughness":{
				"baseColorFactor":[
					0.12696069478988647,
					0.031049754470586777,
					0.023296412080526352,
					1
				],
				"metallicFactor":0,
				"roughnessFactor":0.5
			}
		},
		{
			"doubleSided":true,
			"name":"yesil",
			"pbrMetallicRoughness":{
				"baseColorFactor":[
					0.020572355017066002,
					0.04502791911363602,
					0.01225321926176548,
					1
				],
				"metallicFactor":0,
				"roughnessFactor":0.5
			}
		},
		{
			"doubleSided":true,
			"name":"yesil.001",
			"pbrMetallicRoughness":{
				"baseColorFactor":[
					0.041932351887226105,
					0.09556932747364044,
					0.02564108557999134,
					1
				],
				"metallicFactor":0,
				"roughnessFactor":0.5
			}
		}
	],
	"meshes":[
		{
			"name":"Cube",
			"primitives":[
				{
					"attributes":{
						"POSITION":0,
						"NORMAL":1,
						"TEXCOORD_0":2
					},
					"indices":3,
					"material":0
				},
				{
					"attributes":{
						"POSITION":4,
						"NORMAL":5,
						"TEXCOORD_0":6
					},
					"indices":7,
					"material":1
				},
				{
					"attributes":{
						"POSITION":8,
						"NORMAL":9,
						"TEXCOORD_0":10
					},
					"indices":11,
					"material":2
				}
			]
		}
	],
	"accessors":[
		{
			"bufferView":0,
			"componentType":5126,
			"count":16,
			"max":[
				0.6817861795425415,
				4.6800689697265625,
				0.6817861795425415
			],
			"min":[
				-0.6817861795425415,
				-0.008507251739501953,
				-0.28240513801574707
			],
			"type":"VEC3"
		},
		{
			"bufferView":1,
			"componentType":5126,
			"count":16,
			"type":"VEC3"
		},
		{
			"bufferView":2,
			"componentType":5126,
			"count":16,
			"type":"VEC2"
		},
		{
			"bufferView":3,
			"componentType":5123,
			"count":30,
			"type":"SCALAR"
		},
		{
			"bufferView":4,
			"componentType":5126,
			"count":16,
			"max":[
				2.8147919178009033,
				10.03309440612793,
				2.8147919178009033
			],
			"min":[
				-2.8147919178009033,
				5.2578325271606445,
				-2.8147919178009033
			],
			"type":"VEC3"
		},
		{
			"bufferView":5,
			"componentType":5126,
			"count":16,
			"type":"VEC3"
		},
		{
			"bufferView":6,
			"componentType":5126,
			"count":16,
			"type":"VEC2"
		},
		{
			"bufferView":7,
			"componentType":5123,
			"count":18,
			"type":"SCALAR"
		},
		{
			"bufferView":8,
			"componentType":5126,
			"count":32,
			"max":[
				3.062407970428467,
				10.86762809753418,
				3.062407970428467
			],
			"min":[
				-3.062407970428467,
				3.3290531635284424,
				-3.062407970428467
			],
			"type":"VEC3"
		},
		{
			"bufferView":9,
			"componentType":5126,
			"count":32,
			"type":"VEC3"
		},
		{
			"bufferView":10,
			"componentType":5126,
			"count":32,
			"type":"VEC2"
		},
		{
			"bufferView":11,
			"componentType":5123,
			"count":36,
			"type":"SCALAR"
		}
	],
	"bufferViews":[
		{
			"buffer":0,
			"byteLength":192,
			"byteOffset":0,
			"target":34962
		},
		{
			"buffer":0,
			"byteLength":192,
			"byteOffset":192,
			"target":34962
		},
		{
			"buffer":0,
			"byteLength":128,
			"byteOffset":384,
			"target":34962
		},
		{
			"buffer":0,
			"byteLength":60,
			"byteOffset":512,
			"target":34963
		},
		{
			"buffer":0,
			"byteLength":192,
			"byteOffset":572,
			"target":34962
		},
		{
			"buffer":0,
			"byteLength":192,
			"byteOffset":764,
			"target":34962
		},
		{
			"buffer":0,
			"byteLength":128,
			"byteOffset":956,
			"target":34962
		},
		{
			"buffer":0,
			"byteLength":36,
			"byteOffset":1084,
			"target":34963
		},
		{
			"buffer":0,
			"byteLength":384,
			"byteOffset":1120,
			"target":34962
		},
		{
			"buffer":0,
			"byteLength":384,
			"byteOffset":1504,
			"target":34962
		},
		{
			"buffer":0,
			"byteLength":256,
			"byteOffset":1888,
			"target":34962
		},
		{
			"buffer":0,
			"byteLength":72,
			"byteOffset":2144,
			"target":34963
		}
	],
	"buffers":[
		{
			"byteLength":2216,
			"uri":"agac.bin"
		}
	]
}
