<svg xmlns="http://www.w3.org/2000/svg" viewBox="0 0 32 32">
  <rect width="32" height="32" rx="7" fill="#0f172a"/>

  <!-- Arka bina solda -->
  <rect x="2" y="14" width="5" height="14" fill="#334155"/>
  <rect x="3" y="11" width="3" height="3" fill="#334155"/>

  <!-- Arka bina ortada -->
  <rect x="13" y="10" width="6" height="18" fill="#334155"/>
  <rect x="15" y="7" width="2" height="3" fill="#334155"/>

  <!-- Arka bina sağda -->
  <rect x="25" y="16" width="5" height="12" fill="#334155"/>
  <rect x="26" y="13" width="3" height="3" fill="#334155"/>

  <!-- Ön bina solda -->
  <rect x="7" y="17" width="6" height="11" fill="#3b82f6"/>
  <!-- pencere -->
  <rect x="8.5" y="19" width="1.5" height="1.5" fill="#93c5fd" opacity="0.8"/>
  <rect x="11" y="19" width="1.5" height="1.5" fill="#93c5fd" opacity="0.8"/>
  <rect x="8.5" y="22" width="1.5" height="1.5" fill="#93c5fd" opacity="0.5"/>
  <rect x="11" y="22" width="1.5" height="1.5" fill="#93c5fd" opacity="0.8"/>

  <!-- Ön bina ortada (en uzun) -->
  <rect x="19" y="13" width="6" height="15" fill="#2563eb"/>
  <rect x="20.5" y="15" width="1.5" height="1.5" fill="#93c5fd" opacity="0.8"/>
  <rect x="23" y="15" width="1.5" height="1.5" fill="#93c5fd" opacity="0.8"/>
  <rect x="20.5" y="18" width="1.5" height="1.5" fill="#93c5fd" opacity="0.5"/>
  <rect x="23" y="18" width="1.5" height="1.5" fill="#93c5fd" opacity="0.8"/>
  <rect x="20.5" y="21" width="1.5" height="1.5" fill="#93c5fd" opacity="0.8"/>
  <rect x="23" y="21" width="1.5" height="1.5" fill="#93c5fd" opacity="0.5"/>

  <!-- Zemin çizgisi -->
  <rect x="0" y="28" width="32" height="1" fill="#1e40af" opacity="0.6"/>
</svg>
